# Blender v2.74 (sub 0) OBJ File: ''
# www.blender.org
mtllib untitled-scene.mtl
o default
v 0.000000 -0.050000 0.400000
v 0.400000 -0.050000 0.400000
v 0.000000 0.050000 0.400000
v 0.400000 0.050000 0.400000
v 0.000000 0.050000 0.000000
v 0.400000 0.050000 0.000000
v 0.000000 -0.050000 0.000000
v 0.400000 -0.050000 0.000000
vt 0.000000 0.000000
vt 1.000000 0.000000
vt 0.000000 1.000000
vt 1.000000 1.000000
vn -0.240800 -0.963100 0.120400
vn 0.218200 -0.872900 0.436400
vn -0.218200 0.872900 0.436500
vn 0.240800 0.963100 0.120400
vn -0.240800 0.963100 -0.120300
vn 0.218200 0.872900 -0.436400
vn -0.218200 -0.872900 -0.436500
vn 0.240800 -0.963100 -0.120400
usemtl defaultMat.001
s 1
f 1/1/1 2/2/2 3/3/3
f 3/3/3 2/2/2 4/4/4
f 3/1/3 4/2/4 5/3/5
f 5/3/5 4/2/4 6/4/6
f 5/4/5 6/3/6 7/2/7
f 7/2/7 6/3/6 8/1/8
f 7/1/7 8/2/8 1/3/1
f 1/3/1 8/2/8 2/4/2
f 2/1/2 8/2/8 4/3/4
f 4/3/4 8/2/8 6/4/6
f 7/1/7 1/2/1 5/3/5
f 5/3/5 1/2/1 3/4/3
