# Blender v2.74 (sub 0) OBJ File: ''
# www.blender.org
mtllib untitled-scene.mtl
o cube
v 0.000000 -0.050000 0.400000
v 0.400000 -0.050000 0.400000
v 0.000000 0.050000 0.400000
v 0.400000 0.050000 0.400000
v 0.000000 0.050000 0.000000
v 0.400000 0.050000 0.000000
v 0.000000 -0.050000 0.000000
v 0.400000 -0.050000 0.000000
vt 0.000000 0.000000
vt 1.000000 0.000000
vt 0.000000 1.000000
vt 1.000000 1.000000
vn -0.705500 -0.705500 -0.067800
vn 0.286400 -0.619700 0.730700
vn 0.000000 0.000000 1.000000
vn 0.898400 0.000200 0.439200
vn -0.707100 0.707100 0.000000
vn 0.000000 1.000000 0.000000
vn -0.665600 0.665600 -0.337400
vn 0.412100 0.412100 -0.812600
vn -0.412100 -0.412100 -0.812600
vn 0.665600 -0.665700 -0.337400
usemtl cubeMat
s 1
f 1/1/1 2/2/2 3/3/3
f 3/3/3 2/2/2 4/4/4
f 3/1/5 4/2/6 5/3/7
f 5/3/7 4/2/6 6/4/8
f 5/4/7 6/3/8 7/2/9
f 7/2/9 6/3/8 8/1/10
f 7/1/9 8/2/10 1/3/1
f 1/3/1 8/2/10 2/4/2
f 2/1/2 8/2/10 4/3/4
f 4/3/4 8/2/10 6/4/8
f 7/1/9 1/2/1 5/3/7
f 5/3/7 1/2/1 3/4/5
